<svg width="50" height="50" viewBox="0 0 50 50" fill="none" xmlns="http://www.w3.org/2000/svg">
<path d="M43.4 40.6251V40.9751H43.75H46.875C47.1966 40.9751 47.505 41.1028 47.7324 41.3302C47.9598 41.5576 48.0875 41.866 48.0875 42.1876C48.0875 42.5092 47.9598 42.8176 47.7324 43.0449C47.505 43.2723 47.1966 43.4001 46.875 43.4001H3.125C2.80342 43.4001 2.49502 43.2723 2.26763 43.0449C2.04024 42.8176 1.9125 42.5092 1.9125 42.1876C1.9125 41.866 2.04024 41.5576 2.26763 41.3302C2.49502 41.1028 2.80342 40.9751 3.125 40.9751H6.25H6.6V40.6251L6.6 16.668L6.6 16.6674C6.59913 16.2098 6.71142 15.7591 6.92687 15.3555C7.14232 14.9518 7.45425 14.6077 7.83487 14.3537L23.4597 3.93976L23.4599 3.93966C23.8779 3.66077 24.3638 3.50062 24.8657 3.4763C25.3676 3.45198 25.8667 3.56441 26.3098 3.80159C26.7528 4.03877 27.1231 4.39179 27.3811 4.82298C27.6392 5.25417 27.7753 5.74734 27.775 6.24985V6.25008V15.6251V15.9751H28.125H40.625C41.361 15.9751 42.0668 16.2674 42.5872 16.7879C43.1076 17.3083 43.4 18.0141 43.4 18.7501V40.6251ZM28.125 15.2751V6.25008C28.1254 5.68419 27.9721 5.12882 27.6815 4.64324C27.3909 4.15767 26.9739 3.76012 26.475 3.49303C25.9761 3.22594 25.414 3.09932 24.8488 3.12671C24.2835 3.15409 23.7364 3.33445 23.2656 3.64852L28.125 15.2751ZM40.975 18.7501V18.4001H40.625H28.125H27.775V18.7501V40.6251V40.9751H28.125H40.625H40.975V40.6251V18.7501ZM9.18084 16.3768L9.025 16.4807V16.668V40.6251V40.9751H9.375H25H25.35V40.6251V6.25008V5.59605L24.8058 5.95887L9.18084 16.3768ZM21.525 21.8751V25.0001C21.525 25.3217 21.3973 25.6301 21.1699 25.8574C20.9425 26.0848 20.6341 26.2126 20.3125 26.2126C19.9909 26.2126 19.6825 26.0848 19.4551 25.8574C19.2277 25.6301 19.1 25.3217 19.1 25.0001V21.8751C19.1 21.5535 19.2277 21.2451 19.4551 21.0177C19.6825 20.7903 19.9909 20.6626 20.3125 20.6626C20.6341 20.6626 20.9425 20.7903 21.1699 21.0177C21.3973 21.2451 21.525 21.5535 21.525 21.8751ZM15.275 21.8751V25.0001C15.275 25.3217 15.1473 25.6301 14.9199 25.8574C14.6925 26.0848 14.3841 26.2126 14.0625 26.2126C13.7409 26.2126 13.4325 26.0848 13.2051 25.8574C12.9777 25.6301 12.85 25.3217 12.85 25.0001V21.8751C12.85 21.5535 12.9777 21.2451 13.2051 21.0177C13.4325 20.7903 13.7409 20.6626 14.0625 20.6626C14.3841 20.6626 14.6925 20.7903 14.9199 21.0177C15.1473 21.2451 15.275 21.5535 15.275 21.8751ZM15.275 32.8126V35.9376C15.275 36.2592 15.1473 36.5676 14.9199 36.7949C14.6925 37.0223 14.3841 37.1501 14.0625 37.1501C13.7409 37.1501 13.4325 37.0223 13.2051 36.7949C12.9777 36.5676 12.85 36.2592 12.85 35.9376V32.8126C12.85 32.491 12.9777 32.1826 13.2051 31.9552C13.4325 31.7278 13.7409 31.6001 14.0625 31.6001C14.3841 31.6001 14.6925 31.7278 14.9199 31.9552C15.1473 32.1826 15.275 32.491 15.275 32.8126ZM21.525 32.8126V35.9376C21.525 36.2592 21.3973 36.5676 21.1699 36.7949C20.9425 37.0223 20.6341 37.1501 20.3125 37.1501C19.9909 37.1501 19.6825 37.0223 19.4551 36.7949C19.2277 36.5676 19.1 36.2592 19.1 35.9376V32.8126C19.1 32.491 19.2277 32.1826 19.4551 31.9552C19.6825 31.7278 19.9909 31.6001 20.3125 31.6001C20.6341 31.6001 20.9425 31.7278 21.1699 31.9552C21.3973 32.1826 21.525 32.491 21.525 32.8126Z" fill="#46413D" fill-opacity="0.8" stroke="white" stroke-width="0.7"/>
</svg>
