<svg width="19" height="15" viewBox="0 0 19 15" fill="none" xmlns="http://www.w3.org/2000/svg">
<path d="M17.9945 9.02039C17.7902 8.86288 17.5559 8.74861 17.3059 8.68454C17.0559 8.62048 16.7956 8.60795 16.5406 8.64773C18.0078 7.16648 18.75 5.69382 18.75 4.25007C18.75 2.1821 17.0867 0.500073 15.0422 0.500073C14.4997 0.496667 13.963 0.612046 13.4699 0.838111C12.9767 1.06418 12.539 1.39545 12.1875 1.80867C11.836 1.39545 11.3983 1.06418 10.9051 0.838111C10.412 0.612046 9.87531 0.496667 9.33281 0.500073C7.28828 0.500073 5.625 2.1821 5.625 4.25007C5.625 5.10945 5.87812 5.9446 6.41094 6.8282C5.97456 6.93875 5.57632 7.16555 5.25859 7.48445L3.49141 9.25007H1.25C0.918479 9.25007 0.600537 9.38177 0.366117 9.61619C0.131696 9.85061 0 10.1686 0 10.5001L0 13.6251C0 13.9566 0.131696 14.2745 0.366117 14.509C0.600537 14.7434 0.918479 14.8751 1.25 14.8751H9.375C9.4261 14.8751 9.47701 14.8688 9.52656 14.8563L14.5266 13.6063C14.5584 13.5987 14.5895 13.5883 14.6195 13.5751L17.6562 12.2829L17.6906 12.2673C17.9825 12.1214 18.2324 11.9037 18.4168 11.6346C18.6013 11.3655 18.7142 11.0538 18.7449 10.729C18.7756 10.4042 18.7231 10.0769 18.5924 9.77799C18.4617 9.47906 18.257 9.21834 17.9977 9.02039H17.9945ZM9.33281 1.75007C9.81688 1.74299 10.2921 1.88044 10.6976 2.14486C11.1031 2.40928 11.4206 2.78865 11.6094 3.23445C11.6565 3.34908 11.7366 3.44713 11.8395 3.51613C11.9424 3.58513 12.0636 3.62197 12.1875 3.62197C12.3114 3.62197 12.4326 3.58513 12.5355 3.51613C12.6384 3.44713 12.7185 3.34908 12.7656 3.23445C12.9544 2.78865 13.2719 2.40928 13.6774 2.14486C14.0829 1.88044 14.5581 1.74299 15.0422 1.75007C16.3742 1.75007 17.5 2.8946 17.5 4.25007C17.5 5.77429 16.2664 7.49851 13.9328 9.24226L13.0664 9.44148C13.1425 9.12022 13.1448 8.78592 13.0733 8.46363C13.0017 8.14134 12.8582 7.83941 12.6534 7.58049C12.4486 7.32156 12.1878 7.11235 11.8907 6.96854C11.5935 6.82473 11.2676 6.75004 10.9375 6.75007H7.86563C7.19141 5.8407 6.875 5.0407 6.875 4.25007C6.875 2.8946 8.00078 1.75007 9.33281 1.75007ZM1.25 10.5001H3.125V13.6251H1.25V10.5001ZM17.143 11.1415L14.1742 12.4055L9.29688 13.6251H4.375V10.1337L6.14297 8.36648C6.25862 8.2499 6.39629 8.15747 6.54798 8.09457C6.69967 8.03167 6.86235 7.99955 7.02656 8.00007H10.9375C11.1861 8.00007 11.4246 8.09885 11.6004 8.27466C11.7762 8.45048 11.875 8.68893 11.875 8.93757C11.875 9.18621 11.7762 9.42467 11.6004 9.60049C11.4246 9.7763 11.1861 9.87507 10.9375 9.87507H8.75C8.58424 9.87507 8.42527 9.94092 8.30806 10.0581C8.19085 10.1753 8.125 10.3343 8.125 10.5001C8.125 10.6658 8.19085 10.8248 8.30806 10.942C8.42527 11.0592 8.58424 11.1251 8.75 11.1251H11.25C11.297 11.1249 11.3439 11.1197 11.3898 11.1094L16.6242 9.90554L16.6484 9.89929C16.8082 9.85493 16.9788 9.87123 17.1273 9.94506C17.2758 10.0189 17.3917 10.145 17.4528 10.2992C17.5139 10.4534 17.5158 10.6247 17.4582 10.7802C17.4005 10.9357 17.2874 11.0644 17.1406 11.1415H17.143Z" fill="#8A6734"/>
</svg>
