<svg width="18" height="18" viewBox="0 0 18 18" fill="none" xmlns="http://www.w3.org/2000/svg">
<path d="M17.4047 9.06562L11.5 6.11406V2.75C11.5 2.08696 11.2366 1.45107 10.7678 0.982233C10.2989 0.513392 9.66304 0.25 9 0.25C8.33696 0.25 7.70107 0.513392 7.23223 0.982233C6.76339 1.45107 6.5 2.08696 6.5 2.75V6.11406L0.595313 9.06562C0.491476 9.11758 0.404166 9.19744 0.343173 9.29625C0.282181 9.39505 0.249917 9.50889 0.25 9.625V12.125C0.250051 12.2174 0.270611 12.3087 0.310197 12.3923C0.349783 12.4758 0.40741 12.5495 0.478924 12.6081C0.550438 12.6667 0.634059 12.7087 0.723759 12.7311C0.81346 12.7535 0.907006 12.7556 0.997656 12.7375L6.5 11.6375V13.1164L5.43281 14.1828C5.37479 14.2409 5.32878 14.3098 5.29741 14.3857C5.26605 14.4616 5.24994 14.5429 5.25 14.625V17.125C5.24982 17.2274 5.27483 17.3283 5.32281 17.4188C5.37079 17.5093 5.44028 17.5867 5.52517 17.644C5.61005 17.7013 5.70773 17.7369 5.8096 17.7476C5.91147 17.7584 6.01442 17.7439 6.10938 17.7055L9 16.5484L11.8906 17.7055C11.9856 17.7439 12.0885 17.7584 12.1904 17.7476C12.2923 17.7369 12.3899 17.7013 12.4748 17.644C12.5597 17.5867 12.6292 17.5093 12.6772 17.4188C12.7252 17.3283 12.7502 17.2274 12.75 17.125V14.625C12.7501 14.5429 12.734 14.4616 12.7026 14.3857C12.6712 14.3098 12.6252 14.2409 12.5672 14.1828L11.5 13.1164V11.6375L17.0023 12.7375C17.093 12.7556 17.1865 12.7535 17.2762 12.7311C17.3659 12.7087 17.4496 12.6667 17.5211 12.6081C17.5926 12.5495 17.6502 12.4758 17.6898 12.3923C17.7294 12.3087 17.7499 12.2174 17.75 12.125V9.625C17.7501 9.50889 17.7178 9.39505 17.6568 9.29625C17.5958 9.19744 17.5085 9.11758 17.4047 9.06562ZM16.5 11.3625L10.9977 10.2625C10.907 10.2444 10.8135 10.2465 10.7238 10.2689C10.6341 10.2913 10.5504 10.3333 10.4789 10.3919C10.4074 10.4505 10.3498 10.5242 10.3102 10.6077C10.2706 10.6913 10.2501 10.7826 10.25 10.875V13.375C10.2499 13.4571 10.266 13.5384 10.2974 13.6143C10.3288 13.6902 10.3748 13.7591 10.4328 13.8172L11.5 14.8836V16.2016L9.23438 15.2945C9.08542 15.235 8.91927 15.235 8.77031 15.2945L6.5 16.2016V14.8836L7.56719 13.8172C7.62521 13.7591 7.67122 13.6902 7.70259 13.6143C7.73395 13.5384 7.75006 13.4571 7.75 13.375V10.875C7.74995 10.7826 7.72939 10.6913 7.6898 10.6077C7.65022 10.5242 7.59259 10.4505 7.52108 10.3919C7.44956 10.3333 7.36594 10.2913 7.27624 10.2689C7.18654 10.2465 7.09299 10.2444 7.00234 10.2625L1.5 11.3625V10.0109L7.40469 7.05938C7.50852 7.00742 7.59583 6.92756 7.65683 6.82875C7.71782 6.72995 7.75008 6.61611 7.75 6.5V2.75C7.75 2.41848 7.8817 2.10054 8.11612 1.86612C8.35054 1.6317 8.66848 1.5 9 1.5C9.33152 1.5 9.64946 1.6317 9.88388 1.86612C10.1183 2.10054 10.25 2.41848 10.25 2.75V6.5C10.2499 6.61611 10.2822 6.72995 10.3432 6.82875C10.4042 6.92756 10.4915 7.00742 10.5953 7.05938L16.5 10.0109V11.3625Z" fill="#8A6734"/>
</svg>
