<svg width="20" height="20" viewBox="0 0 20 20" fill="none" xmlns="http://www.w3.org/2000/svg">
<path fill-rule="evenodd" clip-rule="evenodd" d="M14.5818 11.9851C14.333 11.8612 13.1097 11.2622 12.8816 11.1795C12.6536 11.0968 12.4877 11.0556 12.3218 11.3034C12.1559 11.5512 11.6791 12.1091 11.5339 12.2744C11.3888 12.4396 11.2436 12.4604 10.9948 12.3363C10.746 12.2124 9.94426 11.951 8.9939 11.1072C8.25422 10.4506 7.75483 9.63973 7.60972 9.39182C7.46454 9.14391 7.59418 9.0099 7.71877 8.88645C7.83075 8.77546 7.96766 8.59719 8.09203 8.45256C8.21644 8.30801 8.25791 8.20465 8.34084 8.0395C8.42378 7.87416 8.38231 7.72961 8.32007 7.60569C8.25791 7.48173 7.76027 6.26281 7.55292 5.76695C7.35095 5.28413 7.14582 5.34953 6.99309 5.34187C6.84812 5.3347 6.68207 5.33317 6.51622 5.33317C6.35035 5.33317 6.08076 5.39515 5.85264 5.64299C5.62463 5.8909 4.98182 6.49005 4.98182 7.70883C4.98182 8.92779 5.87337 10.1052 5.99782 10.2705C6.12226 10.4358 7.75232 12.937 10.2484 14.0096C10.842 14.2648 11.3055 14.4171 11.6669 14.5313C12.2629 14.7198 12.8053 14.6931 13.2341 14.6294C13.7121 14.5583 14.7062 14.0304 14.9136 13.452C15.1209 12.8734 15.1209 12.3776 15.0587 12.2744C14.9965 12.1711 14.8306 12.1091 14.5818 11.9851ZM10.0418 18.1544H10.0385C8.55328 18.1538 7.09658 17.7567 5.82578 17.0062L5.52353 16.8277L2.39094 17.6455L3.22706 14.6058L3.03032 14.2942C2.20179 12.9827 1.76417 11.4669 1.76482 9.91046C1.76664 5.36881 5.47967 1.67383 10.0451 1.67383C12.2559 1.67462 14.334 2.53254 15.8967 4.08958C17.4594 5.64652 18.3195 7.7161 18.3186 9.91708C18.3168 14.4591 14.6038 18.1544 10.0418 18.1544ZM17.086 2.90644C15.2059 1.03317 12.7057 0.0010692 10.0417 0C4.55291 0 0.0856606 4.44559 0.0834403 9.90981C0.0827241 11.6566 0.541252 13.3614 1.41268 14.8645L0 20L5.27894 18.6219C6.73349 19.4114 8.37111 19.8276 10.0378 19.8281H10.0419C15.5301 19.8281 19.9977 15.3821 20 9.91776C20.001 7.26967 18.9661 4.77968 17.086 2.90644Z" fill="#40311B"/>
</svg>
